<svg width="2367" height="849" viewBox="0 0 2367 849" fill="none" xmlns="http://www.w3.org/2000/svg">
<path d="M79.5455 506.175C79.0899 510.292 82.058 513.999 86.175 514.454L153.265 521.88C157.382 522.336 161.089 519.368 161.545 515.251C162 511.134 159.032 507.427 154.915 506.971L95.2795 500.371L101.88 440.735C102.336 436.618 99.3676 432.911 95.2506 432.455C91.1336 432 87.4267 434.968 86.9711 439.085L79.5455 506.175ZM368.312 272.145L82.3123 501.145L91.6877 512.855L377.688 283.855L368.312 272.145Z" fill="#82D1F5"/>
<path d="M1399.63 514.474C1403.76 514.127 1406.82 510.5 1406.47 506.372L1400.82 439.109C1400.48 434.981 1396.85 431.916 1392.72 432.263C1388.59 432.61 1385.53 436.237 1385.88 440.365L1390.9 500.154L1331.11 505.176C1326.98 505.523 1323.92 509.15 1324.26 513.278C1324.61 517.405 1328.24 520.47 1332.36 520.124L1399.63 514.474ZM1123.16 283.729L1394.16 512.729L1403.84 501.271L1132.84 272.271L1123.16 283.729Z" fill="#82D1F5"/>
<path d="M941.821 513.793C945.573 515.549 950.037 513.93 951.793 510.179L980.402 449.041C982.158 445.29 980.54 440.825 976.788 439.07C973.036 437.314 968.572 438.932 966.816 442.684L941.386 497.028L887.041 471.598C883.29 469.842 878.825 471.46 877.07 475.212C875.314 478.964 876.932 483.428 880.684 485.184L941.821 513.793ZM854.949 280.556L937.949 509.556L952.051 504.444L869.051 275.444L854.949 280.556Z" fill="#82D1F5"/>
<path d="M527.195 510.153C528.936 513.911 533.394 515.546 537.153 513.805L598.4 485.432C602.158 483.691 603.793 479.233 602.052 475.474C600.311 471.716 595.853 470.08 592.095 471.821L537.653 497.042L512.432 442.6C510.691 438.842 506.233 437.207 502.474 438.948C498.716 440.689 497.08 445.147 498.822 448.905L527.195 510.153ZM610.959 275.417L526.959 504.417L541.041 509.583L625.041 280.583L610.959 275.417Z" fill="#82D1F5"/>
<path d="M240.474 264.727V37.4545H293.031V54.8551H260.361V247.327H293.031V264.727H240.474ZM384.318 60.1818V242H362.301V83.2642H361.235L316.846 112.739V90.3665L362.301 60.1818H384.318ZM457.471 217.142L456.051 226.73C455.044 233.477 453.506 240.698 451.434 248.392C449.422 256.086 447.321 263.336 445.131 270.143C442.941 276.949 441.136 282.365 439.715 286.389H423.735C424.505 282.601 425.511 277.6 426.754 271.386C427.997 265.171 429.24 258.217 430.482 250.523C431.785 242.888 432.85 235.075 433.678 227.085L434.744 217.142H457.471ZM630.167 60.1818V242H608.15V83.2642H607.085L562.696 112.739V90.3665L608.15 60.1818H630.167ZM703.321 217.142L701.9 226.73C700.894 233.477 699.355 240.698 697.284 248.392C695.271 256.086 693.17 263.336 690.98 270.143C688.791 276.949 686.985 282.365 685.565 286.389H669.585C670.354 282.601 671.36 277.6 672.603 271.386C673.846 265.171 675.089 258.217 676.332 250.523C677.634 242.888 678.699 235.075 679.528 227.085L680.593 217.142H703.321ZM876.017 60.1818V242H854V83.2642H852.934L808.545 112.739V90.3665L854 60.1818H876.017ZM949.17 217.142L947.75 226.73C946.744 233.477 945.205 240.698 943.133 248.392C941.121 256.086 939.02 263.336 936.83 270.143C934.64 276.949 932.835 282.365 931.415 286.389H915.434C916.204 282.601 917.21 277.6 918.453 271.386C919.696 265.171 920.939 258.217 922.182 250.523C923.484 242.888 924.549 235.075 925.378 227.085L926.443 217.142H949.17ZM1057.95 242V226.02L1117.96 160.324C1125 152.63 1130.8 145.942 1135.36 140.26C1139.92 134.519 1143.29 129.133 1145.48 124.102C1147.73 119.012 1148.86 113.686 1148.86 108.122C1148.86 101.73 1147.32 96.1963 1144.24 91.5206C1141.22 86.8449 1137.08 83.2346 1131.81 80.6896C1126.54 78.1446 1120.62 76.8722 1114.05 76.8722C1107.07 76.8722 1100.97 78.3222 1095.77 81.2223C1090.62 84.0632 1086.62 88.0582 1083.78 93.2074C1081 98.3565 1079.61 104.393 1079.61 111.318H1058.66C1058.66 100.665 1061.11 91.3134 1066.02 83.2642C1070.94 75.215 1077.63 68.9413 1086.09 64.4432C1094.61 59.9451 1104.17 57.696 1114.76 57.696C1125.42 57.696 1134.86 59.9451 1143.08 64.4432C1151.31 68.9413 1157.76 75.0078 1162.44 82.6428C1167.11 90.2777 1169.45 98.7708 1169.45 108.122C1169.45 114.81 1168.24 121.35 1165.81 127.742C1163.44 134.075 1159.3 141.148 1153.38 148.96C1147.52 156.714 1139.39 166.183 1128.97 177.369L1088.13 221.048V222.469H1172.65V242H1057.95ZM1251.57 37.4545V264.727H1199.01V247.327H1231.69V54.8551H1199.01V37.4545H1251.57Z" fill="#006CA9"/>
<path d="M82.7415 567.182V749H60.7244V590.264H59.6591L15.2699 619.739V597.366L60.7244 567.182H82.7415ZM143.91 641.401V622.224H253.285V641.401H143.91ZM143.91 693.957V674.781H253.285V693.957H143.91ZM308.705 641.401V622.224H418.08V641.401H308.705ZM308.705 693.957V674.781H418.08V693.957H308.705ZM528.542 567.182V749H506.525V590.264H505.46L461.071 619.739V597.366L506.525 567.182H528.542ZM589.711 641.401V622.224H699.086V641.401H589.711ZM589.711 693.957V674.781H699.086V693.957H589.711ZM754.506 641.401V622.224H863.881V641.401H754.506ZM754.506 693.957V674.781H863.881V693.957H754.506ZM974.343 567.182V749H952.326V590.264H951.261L906.871 619.739V597.366L952.326 567.182H974.343ZM1035.51 641.401V622.224H1144.89V641.401H1035.51ZM1035.51 693.957V674.781H1144.89V693.957H1035.51ZM1200.31 641.401V622.224H1309.68V641.401H1200.31ZM1200.31 693.957V674.781H1309.68V693.957H1200.31ZM1356.22 749V733.02L1416.24 667.324C1423.28 659.63 1429.08 652.942 1433.64 647.26C1438.2 641.519 1441.57 636.133 1443.76 631.102C1446.01 626.012 1447.13 620.686 1447.13 615.122C1447.13 608.73 1445.59 603.196 1442.52 598.521C1439.5 593.845 1435.35 590.235 1430.09 587.69C1424.82 585.145 1418.9 583.872 1412.33 583.872C1405.35 583.872 1399.25 585.322 1394.04 588.222C1388.89 591.063 1384.9 595.058 1382.06 600.207C1379.28 605.357 1377.89 611.393 1377.89 618.318H1356.93C1356.93 607.665 1359.39 598.313 1364.3 590.264C1369.21 582.215 1375.9 575.941 1384.37 571.443C1392.89 566.945 1402.45 564.696 1413.04 564.696C1423.69 564.696 1433.14 566.945 1441.36 571.443C1449.59 575.941 1456.04 582.008 1460.72 589.643C1465.39 597.278 1467.73 605.771 1467.73 615.122C1467.73 621.81 1466.52 628.35 1464.09 634.742C1461.72 641.075 1457.58 648.148 1451.66 655.96C1445.8 663.714 1437.66 673.183 1427.25 684.369L1386.41 728.048V729.469H1470.93V749H1356.22Z" fill="#737370"/>
<path d="M1627.41 749L1613.74 735.506L1679.79 669.455L1613.74 603.581L1627.41 589.909L1706.96 669.455L1627.41 749ZM1524.25 700.349V680.818H1682.45L1662.92 700.349H1524.25ZM1524.25 658.091V638.56H1662.92L1682.45 658.091H1524.25Z" fill="#737370"/>
<path d="M1743.02 749V567.182H1852.04V586.713H1765.03V648.148H1843.87V667.679H1765.03V749H1743.02ZM1927.03 752.196C1918.39 752.196 1910.55 750.568 1903.51 747.313C1896.46 743.999 1890.87 739.234 1886.73 733.02C1882.58 726.746 1880.51 719.17 1880.51 710.293C1880.51 702.48 1882.05 696.147 1885.13 691.294C1888.21 686.382 1892.32 682.535 1897.47 679.753C1902.62 676.971 1908.3 674.9 1914.51 673.538C1920.79 672.118 1927.09 670.993 1933.42 670.165C1941.71 669.099 1948.43 668.3 1953.58 667.768C1958.79 667.176 1962.57 666.199 1964.94 664.838C1967.37 663.477 1968.58 661.109 1968.58 657.736V657.026C1968.58 648.266 1966.18 641.46 1961.39 636.607C1956.65 631.753 1949.46 629.327 1939.82 629.327C1929.81 629.327 1921.97 631.517 1916.29 635.896C1910.61 640.276 1906.61 644.952 1904.31 649.923L1884.42 642.821C1887.97 634.535 1892.7 628.084 1898.62 623.467C1904.6 618.792 1911.11 615.536 1918.15 613.702C1925.26 611.808 1932.24 610.861 1939.11 610.861C1943.49 610.861 1948.52 611.393 1954.2 612.459C1959.94 613.465 1965.47 615.566 1970.8 618.762C1976.19 621.958 1980.65 626.782 1984.21 633.233C1987.76 639.684 1989.53 648.325 1989.53 659.156V749H1968.58V730.534H1967.52C1966.09 733.493 1963.73 736.66 1960.41 740.033C1957.1 743.407 1952.69 746.277 1947.19 748.645C1941.68 751.012 1934.96 752.196 1927.03 752.196ZM1930.23 733.375C1938.51 733.375 1945.5 731.747 1951.18 728.492C1956.92 725.237 1961.24 721.035 1964.14 715.886C1967.1 710.737 1968.58 705.321 1968.58 699.639V680.463C1967.69 681.528 1965.74 682.505 1962.72 683.393C1959.76 684.221 1956.33 684.961 1952.42 685.612C1948.58 686.204 1944.82 686.737 1941.15 687.21C1937.54 687.625 1934.61 687.98 1932.36 688.276C1926.91 688.986 1921.82 690.14 1917.09 691.738C1912.41 693.277 1908.63 695.615 1905.73 698.751C1902.88 701.829 1901.46 706.031 1901.46 711.358C1901.46 718.638 1904.16 724.142 1909.54 727.871C1914.99 731.54 1921.88 733.375 1930.23 733.375ZM2048.73 567.182V749H2027.77V567.182H2048.73ZM2183.69 643.176L2164.87 648.503C2163.69 645.366 2161.94 642.318 2159.63 639.359C2157.38 636.34 2154.31 633.854 2150.4 631.901C2146.49 629.948 2141.49 628.972 2135.4 628.972C2127.05 628.972 2120.1 630.895 2114.53 634.742C2109.03 638.53 2106.28 643.354 2106.28 649.213C2106.28 654.421 2108.17 658.535 2111.96 661.553C2115.75 664.572 2121.66 667.087 2129.71 669.099L2149.96 674.071C2162.15 677.03 2171.23 681.558 2177.21 687.654C2183.19 693.691 2186.18 701.474 2186.18 711.003C2186.18 718.815 2183.93 725.799 2179.43 731.955C2174.99 738.11 2168.78 742.963 2160.79 746.514C2152.8 750.065 2143.5 751.841 2132.91 751.841C2119 751.841 2107.49 748.822 2098.37 742.786C2089.26 736.749 2083.49 727.93 2081.06 716.33L2100.95 711.358C2102.84 718.697 2106.42 724.201 2111.69 727.871C2117.02 731.54 2123.97 733.375 2132.55 733.375C2142.32 733.375 2150.07 731.304 2155.81 727.161C2161.61 722.958 2164.51 717.928 2164.51 712.068C2164.51 707.333 2162.86 703.368 2159.54 700.172C2156.23 696.917 2151.14 694.49 2144.27 692.892L2121.55 687.565C2109.06 684.606 2099.88 680.019 2094.02 673.805C2088.22 667.531 2085.32 659.689 2085.32 650.278C2085.32 642.584 2087.48 635.778 2091.81 629.859C2096.18 623.941 2102.13 619.295 2109.65 615.921C2117.23 612.548 2125.81 610.861 2135.4 610.861C2148.89 610.861 2159.48 613.82 2167.18 619.739C2174.93 625.657 2180.44 633.47 2183.69 643.176ZM2274.89 751.841C2261.75 751.841 2250.42 748.941 2240.89 743.141C2231.42 737.281 2224.11 729.114 2218.96 718.638C2213.87 708.103 2211.32 695.851 2211.32 681.884C2211.32 667.916 2213.87 655.605 2218.96 644.952C2224.11 634.239 2231.27 625.894 2240.44 619.916C2249.68 613.879 2260.45 610.861 2272.76 610.861C2279.86 610.861 2286.87 612.045 2293.8 614.412C2300.72 616.779 2307.03 620.626 2312.71 625.953C2318.39 631.221 2322.92 638.205 2326.29 646.905C2329.66 655.605 2331.35 666.318 2331.35 679.043V687.92H2226.24V669.81H2310.04C2310.04 662.116 2308.51 655.25 2305.43 649.213C2302.41 643.176 2298.09 638.412 2292.47 634.92C2286.9 631.428 2280.33 629.682 2272.76 629.682C2264.41 629.682 2257.19 631.753 2251.1 635.896C2245.06 639.98 2240.41 645.307 2237.16 651.876C2233.9 658.446 2232.27 665.489 2232.27 673.006V685.08C2232.27 695.378 2234.05 704.108 2237.6 711.269C2241.21 718.371 2246.21 723.787 2252.61 727.516C2259 731.185 2266.42 733.02 2274.89 733.02C2280.39 733.02 2285.36 732.25 2289.8 730.712C2294.3 729.114 2298.18 726.746 2301.43 723.609C2304.69 720.413 2307.2 716.448 2308.98 711.713L2329.22 717.395C2327.09 724.26 2323.51 730.297 2318.48 735.506C2313.45 740.655 2307.23 744.679 2299.84 747.58C2292.44 750.42 2284.12 751.841 2274.89 751.841Z" fill="#FA8F00"/>
<path d="M317.103 749L330 759.086L274.081 849H261.184L230 800.288L242.897 786.876L267.632 812.627L317.103 749Z" fill="#737370"/>
<path d="M1196.73 799L1227.91 830.184L1209.18 848.912L1178 817.728L1146.73 849L1128 830.272L1159.27 799L1128 767.728L1146.73 749L1178 780.272L1209.27 749.088L1228 767.816L1196.73 799Z" fill="#737370"/>
<path d="M766.103 749L779 759.086L723.081 849H710.184L679 800.288L691.897 786.876L716.632 812.627L766.103 749Z" fill="#737370"/>
</svg>
