<?xml version="1.0" encoding="UTF-8" standalone="no"?>
<svg
   xmlns:dc="http://purl.org/dc/elements/1.1/"
   xmlns:cc="http://creativecommons.org/ns#"
   xmlns:rdf="http://www.w3.org/1999/02/22-rdf-syntax-ns#"
   xmlns:svg="http://www.w3.org/2000/svg"
   xmlns="http://www.w3.org/2000/svg"
   id="svg8"
   version="1.1"
   viewBox="0 0 95 26"
   height="26mm"
   width="95mm">
  <defs
     id="defs2" />
  <metadata
     id="metadata5">
    <rdf:RDF>
      <cc:Work
         rdf:about="">
        <dc:format>image/svg+xml</dc:format>
        <dc:type
           rdf:resource="http://purl.org/dc/dcmitype/StillImage" />
        <dc:title></dc:title>
      </cc:Work>
    </rdf:RDF>
  </metadata>
  <text
     xml:space="preserve"
     style="font-style:normal;font-weight:normal;font-size:10.58333302px;line-height:1.25;font-family:sans-serif;letter-spacing:0px;word-spacing:0px;fill:#294270;fill-opacity:1;stroke:none;stroke-width:0.26458335"
     x="46.579384"
     y="9.881321"
     id="text873-0"><tspan
       id="tspan871-3"
       x="46.579384"
       y="9.881321"
       style="font-style:normal;font-variant:normal;font-weight:500;font-stretch:normal;font-family:Roboto;-inkscape-font-specification:'Roboto Medium';fill:#294270;fill-opacity:1;stroke-width:0.26458335">== True</tspan><tspan
       id="tspan4931"
       x="46.579384"
       y="9.881321"
       style="font-style:normal;font-variant:normal;font-weight:500;font-stretch:normal;font-family:Roboto;-inkscape-font-specification:'Roboto Medium';fill:#294270;fill-opacity:1;stroke-width:0.26458335" /></text>
  <text
     xml:space="preserve"
     style="font-style:normal;font-weight:normal;font-size:10.58333302px;line-height:1.25;font-family:sans-serif;letter-spacing:0px;word-spacing:0px;fill:#294270;fill-opacity:1;stroke:none;stroke-width:0.26458335"
     x="46.383907"
     y="22.950451"
     id="text873-0-7"><tspan
       id="tspan871-3-4"
       x="46.383907"
       y="22.950451"
       style="font-style:normal;font-variant:normal;font-weight:500;font-stretch:normal;font-family:Roboto;-inkscape-font-specification:'Roboto Medium';fill:#294270;fill-opacity:1;stroke-width:0.26458335">== False</tspan></text>
  <rect
     y="2.781333"
     x="12.076098"
     height="7.0181313"
     width="7.0181313"
     id="rect4954"
     style="fill:#294270;fill-opacity:1;stroke:#294270;stroke-width:0.76500005;stroke-miterlimit:4;stroke-dasharray:none;stroke-opacity:1" />
  <rect
     y="2.8876314"
     x="23.712288"
     height="7.0181313"
     width="7.0181313"
     id="rect4954-8"
     style="fill:#294270;fill-opacity:1;stroke:#294270;stroke-width:0.76500005;stroke-miterlimit:4;stroke-dasharray:none;stroke-opacity:1" />
  <rect
     y="2.8683045"
     x="35.335728"
     height="7.0181313"
     width="7.0181313"
     id="rect4954-5"
     style="fill:#294270;fill-opacity:1;stroke:#294270;stroke-width:0.76500005;stroke-miterlimit:4;stroke-dasharray:none;stroke-opacity:1" />
  <path
     d="m 19.113949,18.356051 -1.940344,1.798338 0.381416,2.617914 -2.30992,-1.28966 -2.371921,1.171729 0.512736,-2.595392 -1.847344,-1.893747 2.626808,-0.314379 1.230199,-2.342129 1.110721,2.401094 z"
     id="path4977"
     style="fill:#294270;fill-opacity:1;stroke:#294270;stroke-width:0.76500005;stroke-miterlimit:4;stroke-dasharray:none;stroke-opacity:1" />
  <circle
     r="4.0251045"
     cy="19.768486"
     cx="26.812004"
     id="path4979"
     style="fill:#294270;fill-opacity:1;stroke:#294270;stroke-width:0.76500005;stroke-miterlimit:4;stroke-dasharray:none;stroke-opacity:1" />
  <path
     d="m 38.801819,19.992077 c 0.152556,0.19567 -0.188494,0.30218 -0.325217,0.253559 -0.370512,-0.13176 -0.371339,-0.627337 -0.181901,-0.903993 0.33886,-0.494873 1.056487,-0.468914 1.482769,-0.110243 0.625585,0.526363 0.570197,1.491756 0.03858,2.061545 -0.708555,0.759439 -1.929234,0.67311 -2.640321,-0.03307 -0.89483,-0.888659 -0.776877,-2.367776 0.10473,-3.219097 1.067745,-1.031065 2.806918,-0.881139 3.797874,0.176388 1.167807,1.246259 0.985712,3.246435 -0.248047,4.37665 -1.424423,1.304878 -3.6862,1.090493 -4.955425,-0.319705 -1.442174,-1.602356 -1.19542,-4.126142 0.391362,-5.534201 1.78013,-1.579629 4.566213,-1.300452 6.112978,0.46302 1.717202,1.957788 1.405562,5.00638 -0.534678,6.691754"
     id="path5198"
     style="fill:none;fill-rule:evenodd;stroke:#294270;stroke-width:0.84666669;stroke-linecap:round;stroke-miterlimit:4;stroke-dasharray:none;stroke-opacity:1" />
</svg>
